<?xml version="1.0" encoding="UTF-8"?><svg xmlns="http://www.w3.org/2000/svg" viewBox="0 0 300 300" x="0px" y="0px" width="200px" height="180px" version="1.1" xmlns:xlink="http://www.w3.org/1999/xlink"><title>Investment Colored Icons</title><g id="Layer_1" data-name="Layer 1"><path d="M48.93,231.27S60.13,248,63.27,248.66s6.87-3.39,6.87-3.39.08-10.35,0-12.05,6.7-5.51,6.7-5.51,16.88,22.91,19.43,23.16,23.25,2.12,23.58-1.36-5.42-11.28-6.44-12-6.71-8.91-6.71-8.91-2-14.25-.84-15.78,60.74,0,60.74,0,18.41,26,18.66,26.22,2.46,12.23,15.11,12.52,15.78-5.4,15.78-5.4,2.54-5.26-2.38-7.72a86.14,86.14,0,0,1-11.11-7.21v-25s12,3.05,16.62,1.61,13.32-2,13.66-2,10.18,2.37,10.44,2.37,9-9.75,7.46-11.37-10.77-13.83-16-21.12S221,164.93,221,164.93s-42.84-20.28-49.2-21.21-34-3-34.28-3-27.49-7.3-36-8.57S68.78,136.08,66.24,144,59,160,58.86,160.4s.93,32.36.93,32.36v7.12Z" style="fill:#2a94f4;"/><path d="M51.5,207.85l-7,24.66a3.51,3.51,0,0,0,.89,3.46L63,253.59a3.53,3.53,0,0,0,5,0l7-7.05a3.5,3.5,0,0,0,.85-3.61l-2.94-8.8,3.26-4.35L90.65,253a3.51,3.51,0,0,0,3,1.65h28.18a3.52,3.52,0,0,0,3.34-4.64l-3.52-10.57a3.53,3.53,0,0,0-1.39-1.81l-9.3-6.2-2.58-15.53h57.31L189.28,253a3.53,3.53,0,0,0,3,1.64h24.66a3.53,3.53,0,0,0,3.52-3.52V240.53a3.53,3.53,0,0,0-1.94-3.17l-12.15-6.05v-22l9.56,2.87a3.61,3.61,0,0,0,2.11,0l9.68-3.23,16.7,3.33a3.49,3.49,0,0,0,3.62-1.49l7.05-10.57a3.53,3.53,0,0,0-.44-4.45L244.38,185.5,234,168.24a3.64,3.64,0,0,0-1.44-1.34l-28.37-14.17-24.66-10.57a3.52,3.52,0,0,0-1.06-.27l-38.44-3.5-38.46-10.47a3.69,3.69,0,0,0-1.55-.06l-26.81,4.85A3.5,3.5,0,0,0,71.14,134L55.68,153a3.55,3.55,0,0,0-.79,2.23v39.55a3.53,3.53,0,0,0,.53,1.87l.67,1.05-4.41,9.71a4.84,4.84,0,0,0-.18.49Zm10.43-51.42,13.86-17L100.53,135l38,10.35a2.52,2.52,0,0,0,.61.11l38.19,3.47,23.95,10.27,27.26,13.63,10,16.74a3.35,3.35,0,0,0,.52.67l8.53,8.53-4.13,6.18-15.29-3.05a3.34,3.34,0,0,0-1.8.11l-9.51,3.17-34.17-10.25-2,6.75,18.63,5.59v26.26a3.5,3.5,0,0,0,2,3.17l12.14,6v4.87h-19.2L170.6,210.45a3.54,3.54,0,0,0-3-1.63h-63.4a3.53,3.53,0,0,0-3.48,4.11l3.52,21.13a3.52,3.52,0,0,0,1.52,2.35l9.57,6.38,1.59,4.78H95.59L61.93,193.72ZM58.2,210l2.37-5.21,11.58,18.54-6,8a3.52,3.52,0,0,0-.52,3.23l2.81,8.5-3,3L51.8,232.46Zm0,0" style="fill:#0b4870;"/><path d="M227.5,191.21a5.53,5.53,0,0,0,.7-.07,2.4,2.4,0,0,0,.64-.21,3.11,3.11,0,0,0,.63-.32c.18-.13.36-.27.53-.42a3.71,3.71,0,0,0,1-2.5,3.42,3.42,0,0,0-.28-1.34,3.54,3.54,0,0,0-.74-1.16l-.53-.43a3.11,3.11,0,0,0-.63-.32,2.4,2.4,0,0,0-.64-.21,3.57,3.57,0,0,0-3.2,1,4,4,0,0,0-.74,1.16,3.62,3.62,0,0,0-.29,1.34,3.55,3.55,0,0,0,1,2.5,3.48,3.48,0,0,0,2.5,1Zm0,0" style="fill:#0b4870;"/><path d="M241.27,131.9,245,143.2l-43.17-21.58L184.78,90.86a3.53,3.53,0,0,0-4.49-1.51L127.1,112.6,110.92,77a3.48,3.48,0,0,0-1.63-1.69L49.41,45.38l-3.15,6.31L105,81.07l17.11,37.62a3.51,3.51,0,0,0,4.61,1.76l53.43-23.37L196.24,126a3.61,3.61,0,0,0,1.5,1.45l44.15,22.07-11.31,3.77,9.07,4.53,16-5.34-5.34-16Zm0,0" style="fill:#0b4870;"/></g></svg>