<?xml version="1.0" encoding="UTF-8"?><svg xmlns="http://www.w3.org/2000/svg" viewBox="0 0 300 300" x="0px" y="0px" width="220px" height="180px" xmlns:xlink="http://www.w3.org/1999/xlink" version="1.1"><title>Investment Colored Icons</title><g id="Layer_2" data-name="Layer 2"><path d="M159.8,226.66s-.51,6.72,1.19,8.77,5.28,4.42,8.17,4.25,6.47-.34,5.62-2.3-1.28-5.7-2.56-9.7-1.7-6.38-1.44-8.94-.6-2.72.51-6.12a32.06,32.06,0,0,1,3.57-7.75c.94-1.27,15.07-7.06,19.32-10.47s6.89-11.83,7.32-13.19,5.7-8.93,6.89-10.55,1.11-2.21,1.88-2,.34.17,3,2,4.35,2.81,5.45,2.47,7.58-2.22,7.15-6.81S222.18,154,222.18,154l-.17-4.77s2-10-1.87-13.1-9.19-7.41-10.3-8-7.15.93-11.74,3.32-4.51,4.76-8.26,5.78-12.34,1.88-14.81,2.56-2,5.7-14.13,6.8-34.29,1.11-46,5.37-16.42,3.23-22.3,7.06-7.14,6.38-8.93,7.57-7.07,3.07-9.28,13.2-10.72,22.38-11.23,24a59.21,59.21,0,0,0-1.53,15.32c.42,5.27,1.1,20.1,4.25,20.6s11.58,4.09,11.4,0S75,230.4,75,225.72s0-7.57,1.62-9.61,2.89-2,4.68-3.49,3.23-3.92,4.51-4.77A25.43,25.43,0,0,0,90.27,203a12.69,12.69,0,0,1,4.93-3.83,5.21,5.21,0,0,1,2.81-.08c.51.25,2,1.1,2,1.1s0,1.45.6,1.87,3.91.26,2.47,2.22-2.39,1.1-2.47,4.08.68,3.41.68,5.7-.94,2.64.34,4.26,4.68,4.85,4.68,4.85l6,9.19s-.26.68,1.36,3.92,1.19,3.57,3.49,3.83,5.45.76,7.4.42,3.32-.08,3.92-1.62,5.53,6.22.59-3.06-4.42-9.19-5.7-11.23-2.47-3.32-3.32-5.88-1.78-3.48-2-6.12-2-2.3-.17-4.51,3.83-4.17,3.83-4.17,13.11-3.07,14.55-2.81a34.83,34.83,0,0,1,6.9,2.13c2.3,1,2.64.59,3.91,2s2.3-2.72,4,3.49,2.13,8.85,3.58,11.07a44,44,0,0,0,2.89,4Z" style="fill:#2a94f4;"/></g><g id="Layer_1" data-name="Layer 1"><path d="M221.58,126.78,218.79,131l-4.64-4.64a3,3,0,0,0-2.86-.79l-12.07,3a2.92,2.92,0,0,0-.94.41l-8.55,5.7-14.51,2.91a2.9,2.9,0,0,0-1.09.45l-8.38,5.58-41.43,3a2.41,2.41,0,0,0-.65.12l-30.17,9a2.67,2.67,0,0,0-.8.38L74.6,168.18a2.94,2.94,0,0,0-1.3,2l-2.92,17.46-11.7,17.57a3,3,0,0,0-.49,2.05l3,23.94v8.86a3,3,0,0,0,3,3H79.29a3,3,0,0,0,2.86-4l-2.86-8.58v-13l7.7-5.12a3,3,0,0,0,.74-.72l7.85-10.47,4,1-2.2,13.18a3,3,0,0,0,.62,2.39l11.73,14.66,2.85,8.54a3,3,0,0,0,2.87,2.06h15.08a3,3,0,0,0,2.45-1.25,3,3,0,0,0,.41-2.72l-3-9.05a3.23,3.23,0,0,0-.36-.72L119.18,213l5.48-7.31,8.93-1.78,13,2.6,11.09,22.18V234a3,3,0,0,0,.3,1.35l3,6a3,3,0,0,0,2.71,1.67h12.07a3,3,0,0,0,2.45-1.25,3,3,0,0,0,.41-2.72l-2.94-8.83L173,213.61l4.87-7.32,20.29-8.7a3,3,0,0,0,1.57-1.55l10.62-23.88,6.07,4.05a3,3,0,0,0,3.35,0l9.05-6a3,3,0,0,0,1.13-3.62L224.09,152v-1.17l6.63-1.33a3,3,0,0,0,1.92-1.28l6-9-5-3.35-5.35,8-4.22.85v-7.18a3,3,0,0,0-.89-2.14l-.06-.06,3.46-5.18ZM124.82,232.37l1.57,4.69h-8.73l-2.33-7a3,3,0,0,0-.5-.93l-11.23-14,1.9-11.38,11,2.76-3.47,4.62a3,3,0,0,0-.09,3.49Zm98.57-65.85-5.34,3.57-7.37-4.92a3,3,0,0,0-4.43,1.28l-11.59,26.07-20,8.59a3,3,0,0,0-1.32,1.1l-6,9a3,3,0,0,0-.47,2.17l3,18.1a2.46,2.46,0,0,0,.11.45l1.7,5.08h-6l-1.87-3.73V228a2.87,2.87,0,0,0-.3-1.35l-12.06-24.14a3,3,0,0,0-2.12-1.6l-15.08-3a2.93,2.93,0,0,0-1.18,0l-14.42,2.88L95.1,194.91A3,3,0,0,0,92,196l-8.75,11.65-8.61,5.75a3,3,0,0,0-1.35,2.51V231a3.12,3.12,0,0,0,.16,1l1.69,5.08H67.22v-6c0-.12,0-.25,0-.37l-2.88-23,11.44-17.17a2.92,2.92,0,0,0,.47-1.17L79,172.48l16.64-11.1,29.42-8.82,41.89-3a3,3,0,0,0,1.46-.5l8.56-5.7,14.51-2.91a2.9,2.9,0,0,0,1.08-.44l8.61-5.73,9.91-2.48,3.35,3.35-12.07,2.42,1.19,5.91,14.48-2.9v12a3.05,3.05,0,0,0,.21,1.12Zm0,0" style="fill:#0b4870;"/><path d="M217.68,67.43l9.68,3.23L183.52,92.57a3.06,3.06,0,0,0-1.35,1.36L168.64,121,132.29,95.81a3,3,0,0,0-2.42-.45,3,3,0,0,0-2,1.49L110.27,129.2,59.84,154.4l2.7,5.4,51.28-25.64a3.1,3.1,0,0,0,1.3-1.26l16.49-30.24,36.46,25.25a3,3,0,0,0,4.42-1.14l14.63-29.26,42.94-21.46-3.23,9.68,7.77-3.88,4.57-13.73-13.72-4.57Zm0,0" style="fill:#0b4870;"/></g></svg>